:FULLY-SPECIFIED
:FORCE-ALL-JOINTS-BE-3DOF
:DEGREES
1631
root -15.4489 14.5279 19.0558 -15.9426 -71.0765 16.2431
lfemur 10.5271 -11.5842 -12.3337
ltibia 30.5548 -0 0
lfoot -21.5861 29.2996 0.00540334
ltoes -43.4052 0 0
rfemur -52.6308 -14.7507 8.08748
rtibia 65.6574 -0 0
rfoot -9.78024 10.4284 0.00168217
rtoes 2.54078 -0 0
lowerback 12.9223 3.99857 -7.65589
upperback -0.588226 4.08845 -0.283659
thorax -8.43195 2.29211 3.17346
lowerneck 1.31378 -13.0946 -12.8374
upperneck 3.2317 -17.9962 10.5493
head 2.85739 -9.02082 4.46621
lclavicle 0 0 0
lhumerus -72.0823 -17.1131 104.443
lradius 104.157 -0 0
lwrist 54.8039 0 0
lhand -14.6271 48.5956 0.181669
lfingers 0 0 0
lthumb 11.5035 77.9782 0.0747756
rclavicle 0 0 0
rhumerus 46.6567 -4.05469 -56.1236
rradius 19.0567 -0 0
rwrist 22.1905 0 0
rhand -18.085 -35.6795 0.018445
rfingers 0 0 0
rthumb 8.18827 -65.4987 0.0180704
1632
root -15.4566 14.5304 19.0549 -15.9263 -71.1015 16.3069
lfemur 10.674 -11.6201 -12.3758
ltibia 30.3085 -0 0
lfoot -21.5384 29.3582 0.00456573
ltoes -43.3904 0 0
rfemur -52.6939 -14.7672 8.0905
rtibia 65.7646 -0 0
rfoot -9.92532 10.4224 0.00142138
rtoes 2.5461 -0 0
lowerback 12.9085 3.99549 -7.65675
upperback -0.601836 4.08609 -0.274861
thorax -8.43945 2.29199 3.18412
lowerneck 1.34292 -13.0987 -12.8385
upperneck 3.21895 -18.0043 10.5546
head 2.85043 -9.02566 4.4697
lclavicle 0 0 0
lhumerus -72.0981 -17.1593 104.459
lradius 104.153 -0 0
lwrist 54.8574 0 0
lhand -15.2904 48.4557 0.153446
lfingers 0 0 0
lthumb 10.8674 77.9181 0.0631617
rclavicle 0 0 0
rhumerus 46.7094 -4.07901 -56.1934
rradius 19.0351 -0 0
rwrist 22.3484 0 0
rhand -18.0191 -35.535 0.0155855
rfingers 0 0 0
rthumb 8.25188 -65.3519 0.0152689
1633
root -15.4631 14.5327 19.0542 -15.9114 -71.1244 16.3656
lfemur 10.809 -11.6529 -12.4147
ltibia 30.082 -0 0
lfoot -21.4946 29.4121 0.0037525
ltoes -43.3767 0 0
rfemur -52.7518 -14.7824 8.0933
rtibia 65.8631 -0 0
rfoot -10.0587 10.4169 0.00116819
rtoes 2.551 -0 0
lowerback 12.8959 3.99265 -7.65755
upperback -0.61435 4.08393 -0.266771
thorax -8.44634 2.29188 3.19393
lowerneck 1.36972 -13.1024 -12.8395
upperneck 3.20722 -18.0118 10.5595
head 2.84403 -9.03011 4.47291
lclavicle 0 0 0
lhumerus -72.1126 -17.2019 104.473
lradius 104.149 -0 0
lwrist 54.9067 0 0
lhand -15.9002 48.3274 0.126066
lfingers 0 0 0
lthumb 10.2825 77.8629 0.0518939
rclavicle 0 0 0
rhumerus 46.7579 -4.10131 -56.2575
rradius 19.0153 -0 0
rwrist 22.4937 0 0
rhand -17.9585 -35.402 0.0128092
rfingers 0 0 0
rthumb 8.31037 -65.217 0.012549
1634
root -15.4685 14.5349 19.0536 -15.8979 -71.1453 16.4188
lfemur 10.9314 -11.6826 -12.45
ltibia 29.8768 -0 0
lfoot -21.455 29.4609 0.00298002
ltoes -43.3643 0 0
rfemur -52.8043 -14.7961 8.09585
rtibia 65.9524 -0 0
rfoot -10.1796 10.4119 0.000927701
rtoes 2.55544 -0 0
lowerback 12.8844 3.99008 -7.65827
upperback -0.62569 4.08196 -0.25944
thorax -8.45258 2.29178 3.20281
lowerneck 1.394 -13.1057 -12.8405
upperneck 3.19659 -18.0186 10.5639
head 2.83823 -9.03414 4.47582
lclavicle 0 0 0
lhumerus -72.1257 -17.2404 104.487
lradius 104.146 -0 0
lwrist 54.9513 0 0
lhand -16.4528 48.2113 0.100077
lfingers 0 0 0
lthumb 9.75247 77.813 0.0411977
rclavicle 0 0 0
rhumerus 46.8018 -4.12146 -56.3156
rradius 18.9973 -0 0
rwrist 22.6252 0 0
rhand -17.9036 -35.2816 0.0101722
rfingers 0 0 0
rthumb 8.36336 -65.0948 0.00996554
